<?xml version="1.0" encoding="UTF-8"?>
<svg id="Capa_1" xmlns="http://www.w3.org/2000/svg" version="1.1" viewBox="0 0 73.4 78.8">
  <!-- Generator: Adobe Illustrator 30.1.0, SVG Export Plug-In . SVG Version: 2.1.1 Build 136)  -->
  <defs>
    <style>
      .st0 {
        fill: #fff;
      }
    </style>
  </defs>
  <g id="hc2LH0">
    <g>
      <path class="st0" d="M40,78.2c-2.5.6-5,.5-7.4-.2s-1.1-.5-1.7-.8l-24.5-12c-.8-.4-1.5-.7-2.2-1.2C1.9,62.5,0,59.2,0,56.4V22.5c0-1.2.3-2.3.8-3.4.7-1.8,2.5-4,4.3-4.8L30.9,1.6c.8-.4,1.6-.8,2.4-1,2.2-.5,4.4-.5,6.6,0s1.6.6,2.4,1l25.2,12.3c1.6.8,3,1.9,4,3.4s1.7,3.1,1.7,4.9v34.3c0,1.9-.9,3.7-2,5.2s-1.3,1.5-2.1,2.1-1.5.9-2.2,1.3l-3,1.5c0,0-.2,0-.3.2l-21.4,10.4c-.8.4-1.5.8-2.4,1ZM40.3,31.7l26.2-12.8c.6-.3,1.1-.5,1.6-1,.3-.2.3-.6,0-.9s-.6-.5-1-.7l-24.2-11.8c-1-.5-1.8-1-2.9-1.3-2.1-.7-4.5-.7-6.6,0s-1.9.9-2.9,1.3L6.5,16.3c-.4.2-1.4.8-1.4,1.3s1.2,1.1,1.7,1.3l26.2,12.8c2.3.8,4.9.8,7.2,0ZM35.1,75c.2-.4.3-.8.3-1.2v-34c0-2.1-1.7-4.7-3.5-5.8s-.9-.5-1.4-.7L5.8,21.1c-.7-.3-2.1-1-2.8-.2s-.5.9-.5,1.5v34.3c.2,2.2,1.7,4.6,3.7,5.7l26.5,12.9c.8.4,2,.7,2.5-.3ZM40.8,75.3l26.3-12.8c2-1,3.8-3.8,3.8-5.9V22.3c0-.6-.2-1.1-.5-1.5-.7-.8-2.1,0-2.8.3l-24.1,11.8-2.1,1.1c-1.7,1.1-3.4,3.7-3.4,5.8v34c0,.5.1.9.3,1.2.5.9,1.7.6,2.6.2Z"/>
      <path class="st0" d="M12.8,36.6c-1.1,1.3-3.1.5-4.3-.6s-2.2-2.9-2.4-4.8.5-3.5,2.3-3.5,1.7.3,2.4.9c1.7,1.4,2.8,3.4,2.9,5.6s-.2,1.8-.8,2.4Z"/>
      <path class="st0" d="M29.9,67.8c-.7.4-1.5.4-2.3,0-1.3-.5-2.2-1.5-2.9-2.7s-1.6-4-.6-5.7,1.6-1.2,2.5-.9c1.5.4,2.6,1.6,3.4,2.9s1.2,2.6,1.1,4.1-.4,1.7-1.2,2.2Z"/>
      <path class="st0" d="M28.2,45.5c-1-.2-1.8-.8-2.4-1.5-1.2-1.2-1.9-2.8-2.1-4.5s0-1.7.5-2.4,1.6-1.3,2.6-1c2.9.9,5.1,5.1,4.2,7.9s-1.5,1.9-2.7,1.5Z"/>
      <path class="st0" d="M12.9,59c-1.3,1.5-3.4.4-4.6-.8s-2-2.8-2.2-4.6,0-1.7.5-2.4c.9-1.6,2.8-1.2,4.1-.2s2.8,3.4,2.9,5.5-.2,1.8-.7,2.5Z"/>
      <path class="st0" d="M22.2,51c-.4,1.2-1.5,1.9-2.7,1.6-3.1-.7-5.5-5.2-4.4-8.1s1.6-1.7,2.8-1.4c2.9.9,5.1,4.9,4.2,7.8Z"/>
      <path class="st0" d="M64.1,48.1c-1.3,1-3.1,1.4-4.2-.1s-.6-1.5-.5-2.4c.2-2.2,1.4-4.3,3.2-5.5s2.8-1.1,3.7,0,.8,1.5.7,2.4c-.1,2.2-1.2,4.3-3,5.6Z"/>
      <path class="st0" d="M45.6,56.9c-1.1.3-2.2-.2-2.7-1.2s-.4-1.3-.4-2.1c.2-2.2,1.3-4.3,3.1-5.6s1.1-.6,1.7-.7c1.1-.2,2.2.4,2.6,1.5,1.1,2.8-1.2,7.3-4.3,8.1Z"/>
      <path class="st0" d="M62.1,37.6c-1,.2-1.9-.3-2.4-1.2-1.4-2.7,1.1-7.6,4.3-8.4s2.1.2,2.6,1.2.5,1.3.4,2.1c-.2,2.2-1.3,4.4-3.2,5.7s-1.1.6-1.7.7Z"/>
      <path class="st0" d="M67,53.7c0,4.1-4.1,7.8-6.5,6.3s-1-1.1-1.1-1.8c-.4-2.3.9-4.9,2.6-6.4s1.4-1,2.2-1.1,1.5,0,2,.6.8,1.5.8,2.4Z"/>
      <path class="st0" d="M44.9,68.3c-1.9,0-2.5-2.1-2.3-3.7s1-3.3,2.3-4.5,1.6-1.3,2.7-1.4,2,.4,2.4,1.4c1.3,3.1-1.8,8.3-5,8.2Z"/>
      <path class="st0" d="M47.2,44.7c-1.1.8-2.8,1.3-3.8.2s-.9-1.6-.8-2.5c.1-2.2,1.2-4.3,2.9-5.6s3.3-1.4,4.2.2.6,1.5.5,2.4c-.2,2.1-1.3,4.1-3,5.4Z"/>
      <path class="st0" d="M23.2,19c-2.1,1-5.2.9-7.3-.1s-1.2-.7-1.4-1.4,0-1.2.5-1.5c.8-.7,1.9-1.1,3-1.2,2-.3,4.7-.1,6.2,1.2s.7,1,.5,1.6-.9,1.1-1.6,1.4Z"/>
      <path class="st0" d="M57.3,19c-2.1.9-5.1.9-7.1,0s-1.3-.7-1.5-1.4,0-1.2.5-1.6c1.7-1.6,5.1-1.6,7.2-1.1s3.1,1.3,2.6,2.7-.9,1.1-1.6,1.4Z"/>
      <path class="st0" d="M41.2,10.5c-1.7,1.4-4.7,1.5-6.8,1.1s-3.4-1.2-2.9-2.7.8-1.2,1.5-1.5c2.1-1,5.3-1,7.4,0s1.2.7,1.4,1.4-.1,1.2-.6,1.6Z"/>
      <path class="st0" d="M40,27c-2.1.8-4.5.8-6.6,0s-1.1-.5-1.5-1-.6-1.3-.1-1.9.9-.8,1.5-1.1c1.9-.7,4-.8,5.9-.3s1.7.6,2.3,1.3.5,1.3,0,1.9-.9.8-1.6,1Z"/>
    </g>
  </g>
</svg>