<?xml version="1.0" encoding="utf-8"?>
<!-- Generator: Adobe Illustrator 24.1.0, SVG Export Plug-In . SVG Version: 6.00 Build 0)  -->
<svg version="1.1" id="Capa_1" xmlns="http://www.w3.org/2000/svg" xmlns:xlink="http://www.w3.org/1999/xlink" x="0px" y="0px"
	 viewBox="0 0 200 200" style="enable-background:new 0 0 200 200;" xml:space="preserve">
<style type="text/css">
	.st0{fill:#FFFFFF;}
</style>
<path class="st0" d="M197.2,98.9l-68.8-55.5c-0.7-0.6-1.8-0.5-2.4,0.2l-14.1,16.8c-0.6,0.7-0.5,1.8,0.2,2.4L139.9,86
	c0.6,0.5,0.2,1.4-0.5,1.4H3.7c-0.9,0-1.7,0.8-1.7,1.7v22.4c0,0.9,0.8,1.7,1.7,1.7h136.2c0.7,0,1.1,0.9,0.5,1.4l-28,22.8
	c-0.7,0.6-0.8,1.7-0.2,2.4l14.1,17.3c0.6,0.7,1.7,0.8,2.4,0.2l68.5-55.2C198.3,101.4,198.3,99.8,197.2,98.9z"/>
</svg>
